<mxfile host="Electron" agent="Mozilla/5.0 (Windows NT 10.0; Win64; x64) AppleWebKit/537.36 (KHTML, like Gecko) draw.io/26.0.16 Chrome/132.0.6834.196 Electron/34.2.0 Safari/537.36" version="26.0.16">
  <diagram name="Page-1" id="YpUqDJUADNSs8tz-bgrU">
    <mxGraphModel dx="3375" dy="2113" grid="1" gridSize="10" guides="1" tooltips="1" connect="1" arrows="1" fold="1" page="1" pageScale="1" pageWidth="1169" pageHeight="827" math="0" shadow="0">
      <root>
        <mxCell id="0" />
        <mxCell id="1" parent="0" />
        <mxCell id="XkHasaW6HYOZsEv8R7DG-7" value="&lt;font style=&quot;font-size: 18px;&quot;&gt;&lt;b style=&quot;&quot;&gt;digitální záznamník N&lt;/b&gt;&lt;/font&gt;&lt;div&gt;&lt;font style=&quot;font-size: 18px;&quot;&gt;&lt;b&gt;&lt;br&gt;&lt;/b&gt;&lt;/font&gt;&lt;/div&gt;&lt;div&gt;&lt;font style=&quot;font-size: 18px;&quot;&gt;&lt;b&gt;&lt;br&gt;&lt;/b&gt;&lt;/font&gt;&lt;/div&gt;&lt;div&gt;&lt;font style=&quot;font-size: 18px;&quot;&gt;&lt;b&gt;&lt;br&gt;&lt;/b&gt;&lt;/font&gt;&lt;/div&gt;&lt;div&gt;&lt;font style=&quot;font-size: 18px;&quot;&gt;&lt;b&gt;&lt;br&gt;&lt;/b&gt;&lt;/font&gt;&lt;/div&gt;&lt;div&gt;&lt;font style=&quot;font-size: 16px;&quot;&gt;&lt;b&gt;&lt;br&gt;&lt;/b&gt;&lt;/font&gt;&lt;/div&gt;" style="text;html=1;align=center;verticalAlign=middle;whiteSpace=wrap;rounded=0;fillColor=#7EA6E0;strokeColor=default;strokeWidth=3;" parent="1" vertex="1">
          <mxGeometry y="510" width="307.5" height="160" as="geometry" />
        </mxCell>
        <mxCell id="XkHasaW6HYOZsEv8R7DG-8" value="" style="rounded=0;whiteSpace=wrap;html=1;strokeWidth=2;fillColor=#fff2cc;strokeColor=#33001A;" parent="1" vertex="1">
          <mxGeometry x="490" y="300" width="120" height="120" as="geometry" />
        </mxCell>
        <mxCell id="XkHasaW6HYOZsEv8R7DG-9" value="&lt;font style=&quot;font-size: 18px;&quot;&gt;&lt;b style=&quot;&quot;&gt;brána&lt;/b&gt;&lt;/font&gt;&lt;div&gt;&lt;div&gt;&lt;font style=&quot;font-size: 18px;&quot;&gt;&lt;b style=&quot;&quot;&gt;(gateway)&lt;/b&gt;&lt;/font&gt;&lt;/div&gt;&lt;/div&gt;" style="text;html=1;align=center;verticalAlign=middle;whiteSpace=wrap;rounded=0;fillColor=#fff2cc;strokeColor=#000000;strokeWidth=3;" parent="1" vertex="1">
          <mxGeometry x="490" y="300" width="120" height="120" as="geometry" />
        </mxCell>
        <mxCell id="XkHasaW6HYOZsEv8R7DG-10" value="" style="endArrow=classic;html=1;rounded=0;exitX=1;exitY=0.5;exitDx=0;exitDy=0;entryX=-0.005;entryY=0.751;entryDx=0;entryDy=0;entryPerimeter=0;strokeWidth=3;" parent="1" source="XkHasaW6HYOZsEv8R7DG-7" target="XkHasaW6HYOZsEv8R7DG-9" edge="1">
          <mxGeometry width="50" height="50" relative="1" as="geometry">
            <mxPoint x="390" y="420" as="sourcePoint" />
            <mxPoint x="440" y="370" as="targetPoint" />
          </mxGeometry>
        </mxCell>
        <mxCell id="XkHasaW6HYOZsEv8R7DG-11" value="" style="endArrow=classic;html=1;rounded=0;entryX=0.001;entryY=0.578;entryDx=0;entryDy=0;entryPerimeter=0;strokeWidth=3;exitX=1;exitY=0.557;exitDx=0;exitDy=0;exitPerimeter=0;" parent="1" source="IK0UVOFYf5uRvNnu709M-1" target="XkHasaW6HYOZsEv8R7DG-9" edge="1">
          <mxGeometry width="50" height="50" relative="1" as="geometry">
            <mxPoint x="310" y="330" as="sourcePoint" />
            <mxPoint x="440" y="370" as="targetPoint" />
          </mxGeometry>
        </mxCell>
        <mxCell id="XkHasaW6HYOZsEv8R7DG-12" value="" style="endArrow=classic;html=1;rounded=0;exitX=0.999;exitY=0.626;exitDx=0;exitDy=0;entryX=0;entryY=0.25;entryDx=0;entryDy=0;exitPerimeter=0;strokeWidth=3;" parent="1" source="IK0UVOFYf5uRvNnu709M-9" target="XkHasaW6HYOZsEv8R7DG-9" edge="1">
          <mxGeometry width="50" height="50" relative="1" as="geometry">
            <mxPoint x="308.73" y="139.3599999999999" as="sourcePoint" />
            <mxPoint x="440" y="370" as="targetPoint" />
          </mxGeometry>
        </mxCell>
        <mxCell id="XkHasaW6HYOZsEv8R7DG-13" value="&lt;font style=&quot;font-size: 14px;&quot;&gt;&lt;b&gt;MQTT&lt;/b&gt;&lt;/font&gt;" style="text;html=1;align=center;verticalAlign=middle;whiteSpace=wrap;rounded=0;rotation=46;" parent="1" vertex="1">
          <mxGeometry x="357" y="170" width="60" height="30" as="geometry" />
        </mxCell>
        <mxCell id="XkHasaW6HYOZsEv8R7DG-14" value="" style="endArrow=classic;html=1;rounded=0;exitX=-0.003;exitY=0.409;exitDx=0;exitDy=0;exitPerimeter=0;strokeWidth=3;entryX=1;entryY=0.422;entryDx=0;entryDy=0;entryPerimeter=0;" parent="1" source="XkHasaW6HYOZsEv8R7DG-9" target="IK0UVOFYf5uRvNnu709M-1" edge="1">
          <mxGeometry width="50" height="50" relative="1" as="geometry">
            <mxPoint x="340" y="370" as="sourcePoint" />
            <mxPoint x="310" y="308" as="targetPoint" />
          </mxGeometry>
        </mxCell>
        <mxCell id="XkHasaW6HYOZsEv8R7DG-15" value="" style="endArrow=classic;html=1;rounded=0;exitX=-0.002;exitY=0.103;exitDx=0;exitDy=0;exitPerimeter=0;strokeWidth=3;entryX=1;entryY=0.5;entryDx=0;entryDy=0;" parent="1" source="XkHasaW6HYOZsEv8R7DG-9" edge="1">
          <mxGeometry width="50" height="50" relative="1" as="geometry">
            <mxPoint x="390" y="300" as="sourcePoint" />
            <mxPoint x="307.5" y="120" as="targetPoint" />
          </mxGeometry>
        </mxCell>
        <mxCell id="XkHasaW6HYOZsEv8R7DG-16" value="" style="endArrow=classic;html=1;rounded=0;exitX=-0.002;exitY=0.908;exitDx=0;exitDy=0;exitPerimeter=0;strokeWidth=3;entryX=1.004;entryY=0.621;entryDx=0;entryDy=0;entryPerimeter=0;" parent="1" source="XkHasaW6HYOZsEv8R7DG-9" target="XkHasaW6HYOZsEv8R7DG-7" edge="1">
          <mxGeometry width="50" height="50" relative="1" as="geometry">
            <mxPoint x="370" y="490" as="sourcePoint" />
            <mxPoint x="310" y="580" as="targetPoint" />
          </mxGeometry>
        </mxCell>
        <mxCell id="XkHasaW6HYOZsEv8R7DG-18" value="&lt;font style=&quot;font-size: 14px;&quot;&gt;&lt;b&gt;MQTT&lt;/b&gt;&lt;/font&gt;" style="text;html=1;align=center;verticalAlign=middle;whiteSpace=wrap;rounded=0;rotation=312;" parent="1" vertex="1">
          <mxGeometry x="346" y="475" width="60" height="30" as="geometry" />
        </mxCell>
        <mxCell id="XkHasaW6HYOZsEv8R7DG-19" value="" style="endArrow=classic;html=1;rounded=0;entryX=1.003;entryY=0.337;entryDx=0;entryDy=0;entryPerimeter=0;exitX=0.002;exitY=0.381;exitDx=0;exitDy=0;exitPerimeter=0;strokeWidth=3;" parent="1" source="XkHasaW6HYOZsEv8R7DG-28" target="XkHasaW6HYOZsEv8R7DG-8" edge="1">
          <mxGeometry width="50" height="50" relative="1" as="geometry">
            <mxPoint x="790" y="341" as="sourcePoint" />
            <mxPoint x="659" y="340" as="targetPoint" />
          </mxGeometry>
        </mxCell>
        <mxCell id="XkHasaW6HYOZsEv8R7DG-20" value="" style="endArrow=classic;html=1;rounded=0;exitX=1.001;exitY=0.666;exitDx=0;exitDy=0;entryX=-0.004;entryY=0.628;entryDx=0;entryDy=0;entryPerimeter=0;exitPerimeter=0;strokeWidth=3;" parent="1" source="XkHasaW6HYOZsEv8R7DG-8" target="XkHasaW6HYOZsEv8R7DG-28" edge="1">
          <mxGeometry width="50" height="50" relative="1" as="geometry">
            <mxPoint x="661" y="379" as="sourcePoint" />
            <mxPoint x="790" y="380" as="targetPoint" />
          </mxGeometry>
        </mxCell>
        <mxCell id="XkHasaW6HYOZsEv8R7DG-27" value="" style="rounded=0;whiteSpace=wrap;html=1;strokeWidth=2;fillColor=#ffe6cc;strokeColor=#000000;" parent="1" vertex="1">
          <mxGeometry x="715" y="280" width="200" height="160" as="geometry" />
        </mxCell>
        <mxCell id="XkHasaW6HYOZsEv8R7DG-28" value="&lt;div&gt;&lt;font style=&quot;font-size: 18px;&quot;&gt;&lt;b style=&quot;&quot;&gt;platforma&amp;nbsp;&lt;/b&gt;&lt;/font&gt;&lt;/div&gt;&lt;div&gt;&lt;font style=&quot;font-size: 18px;&quot;&gt;&lt;b&gt;pro&amp;nbsp;&lt;/b&gt;&lt;/font&gt;&lt;/div&gt;&lt;div&gt;&lt;font style=&quot;font-size: 18px;&quot;&gt;&lt;b&gt;streamování událostí&lt;/b&gt;&lt;/font&gt;&lt;/div&gt;&lt;font style=&quot;font-size: 18px;&quot;&gt;&lt;b style=&quot;&quot;&gt;(Event Streaming Platform)&lt;/b&gt;&lt;/font&gt;" style="text;html=1;align=center;verticalAlign=middle;whiteSpace=wrap;rounded=0;fillColor=#ffe6cc;strokeColor=#000000;strokeWidth=3;" parent="1" vertex="1">
          <mxGeometry x="715" y="280" width="200" height="160" as="geometry" />
        </mxCell>
        <mxCell id="XkHasaW6HYOZsEv8R7DG-22" value="" style="shape=flexArrow;endArrow=classic;html=1;rounded=0;strokeWidth=2;fillColor=#FF6666;strokeColor=#FF6666;" parent="1" edge="1">
          <mxGeometry width="50" height="50" relative="1" as="geometry">
            <mxPoint x="153.53999999999996" y="-10" as="sourcePoint" />
            <mxPoint x="153.53999999999996" y="30" as="targetPoint" />
          </mxGeometry>
        </mxCell>
        <mxCell id="XkHasaW6HYOZsEv8R7DG-23" value="&lt;font style=&quot;color: rgb(255, 102, 102); font-size: 20px;&quot;&gt;&lt;b style=&quot;&quot;&gt;zdroje událostí&lt;/b&gt;&lt;/font&gt;" style="text;html=1;align=center;verticalAlign=middle;whiteSpace=wrap;rounded=0;fillColor=none;strokeColor=none;" parent="1" vertex="1">
          <mxGeometry x="71.25" y="-40" width="165" height="30" as="geometry" />
        </mxCell>
        <mxCell id="XkHasaW6HYOZsEv8R7DG-32" value="" style="shape=flexArrow;endArrow=classic;html=1;rounded=0;strokeWidth=2;fillColor=#FF6666;strokeColor=#FF6666;" parent="1" edge="1">
          <mxGeometry width="50" height="50" relative="1" as="geometry">
            <mxPoint x="549.63" y="250" as="sourcePoint" />
            <mxPoint x="549.63" y="290" as="targetPoint" />
          </mxGeometry>
        </mxCell>
        <mxCell id="XkHasaW6HYOZsEv8R7DG-33" value="&lt;font style=&quot;color: rgb(255, 102, 102); font-size: 20px;&quot;&gt;&lt;b style=&quot;&quot;&gt;most mezi záznamníkem a cloudovými službami&lt;/b&gt;&lt;/font&gt;" style="text;html=1;align=center;verticalAlign=middle;whiteSpace=wrap;rounded=0;fillColor=none;strokeColor=none;" parent="1" vertex="1">
          <mxGeometry x="417" y="180" width="245" height="60" as="geometry" />
        </mxCell>
        <mxCell id="XkHasaW6HYOZsEv8R7DG-34" value="" style="shape=flexArrow;endArrow=classic;html=1;rounded=0;strokeWidth=2;fillColor=#FF6666;strokeColor=#FF6666;" parent="1" edge="1">
          <mxGeometry width="50" height="50" relative="1" as="geometry">
            <mxPoint x="814.8" y="230" as="sourcePoint" />
            <mxPoint x="814.8" y="270" as="targetPoint" />
          </mxGeometry>
        </mxCell>
        <mxCell id="XkHasaW6HYOZsEv8R7DG-35" value="&lt;font style=&quot;color: rgb(255, 102, 102); font-size: 20px;&quot;&gt;&lt;b style=&quot;&quot;&gt;zpracování a&lt;/b&gt;&lt;/font&gt;&lt;div&gt;&lt;font style=&quot;font-size: 20px;&quot; color=&quot;#ff6666&quot;&gt;&lt;b style=&quot;&quot;&gt;transformace dat&lt;/b&gt;&lt;/font&gt;&lt;/div&gt;" style="text;html=1;align=center;verticalAlign=middle;whiteSpace=wrap;rounded=0;fillColor=none;strokeColor=none;" parent="1" vertex="1">
          <mxGeometry x="700" y="160" width="230" height="67.5" as="geometry" />
        </mxCell>
        <mxCell id="XkHasaW6HYOZsEv8R7DG-36" value="" style="endArrow=none;dashed=1;html=1;dashPattern=1 3;strokeWidth=3;rounded=0;" parent="1" edge="1">
          <mxGeometry width="50" height="50" relative="1" as="geometry">
            <mxPoint x="670" y="670" as="sourcePoint" />
            <mxPoint x="670" y="-20" as="targetPoint" />
          </mxGeometry>
        </mxCell>
        <mxCell id="XkHasaW6HYOZsEv8R7DG-37" value="" style="endArrow=classic;html=1;rounded=0;entryX=1.003;entryY=0.337;entryDx=0;entryDy=0;entryPerimeter=0;exitX=0.002;exitY=0.381;exitDx=0;exitDy=0;exitPerimeter=0;strokeWidth=3;" parent="1" source="XkHasaW6HYOZsEv8R7DG-40" edge="1">
          <mxGeometry width="50" height="50" relative="1" as="geometry">
            <mxPoint x="1065" y="341" as="sourcePoint" />
            <mxPoint x="915" y="340" as="targetPoint" />
          </mxGeometry>
        </mxCell>
        <mxCell id="XkHasaW6HYOZsEv8R7DG-38" value="" style="endArrow=classic;html=1;rounded=0;exitX=1.001;exitY=0.666;exitDx=0;exitDy=0;entryX=-0.004;entryY=0.628;entryDx=0;entryDy=0;entryPerimeter=0;exitPerimeter=0;strokeWidth=3;" parent="1" target="XkHasaW6HYOZsEv8R7DG-40" edge="1">
          <mxGeometry width="50" height="50" relative="1" as="geometry">
            <mxPoint x="915" y="380" as="sourcePoint" />
            <mxPoint x="1065" y="380" as="targetPoint" />
          </mxGeometry>
        </mxCell>
        <mxCell id="XkHasaW6HYOZsEv8R7DG-39" value="" style="rounded=0;whiteSpace=wrap;html=1;strokeWidth=2;fillColor=#d5e8d4;strokeColor=#000000;" parent="1" vertex="1">
          <mxGeometry x="1025" y="280" width="200" height="160" as="geometry" />
        </mxCell>
        <mxCell id="XkHasaW6HYOZsEv8R7DG-40" value="&lt;div&gt;&lt;b style=&quot;&quot;&gt;&lt;font style=&quot;font-size: 18px;&quot;&gt;databáze&lt;/font&gt;&lt;/b&gt;&lt;/div&gt;&lt;div&gt;&lt;b&gt;&lt;font style=&quot;font-size: 18px;&quot;&gt;&lt;br&gt;&lt;/font&gt;&lt;/b&gt;&lt;/div&gt;&lt;div&gt;&lt;b style=&quot;&quot;&gt;&lt;font style=&quot;font-size: 18px;&quot;&gt;(TimescaleDB, InfuxDB,...)&lt;/font&gt;&lt;/b&gt;&lt;/div&gt;" style="text;html=1;align=center;verticalAlign=middle;whiteSpace=wrap;rounded=0;fillColor=#d5e8d4;strokeColor=#000000;strokeWidth=3;" parent="1" vertex="1">
          <mxGeometry x="1025" y="280" width="200" height="160" as="geometry" />
        </mxCell>
        <mxCell id="XkHasaW6HYOZsEv8R7DG-41" value="" style="shape=flexArrow;endArrow=classic;html=1;rounded=0;strokeWidth=2;fillColor=#FF6666;strokeColor=#FF6666;" parent="1" edge="1">
          <mxGeometry width="50" height="50" relative="1" as="geometry">
            <mxPoint x="1124.8" y="230" as="sourcePoint" />
            <mxPoint x="1124.8" y="270" as="targetPoint" />
          </mxGeometry>
        </mxCell>
        <mxCell id="XkHasaW6HYOZsEv8R7DG-42" value="&lt;font style=&quot;color: rgb(255, 102, 102); font-size: 20px;&quot;&gt;&lt;b style=&quot;&quot;&gt;dlouhodobé uložiště dat&lt;/b&gt;&lt;/font&gt;" style="text;html=1;align=center;verticalAlign=middle;whiteSpace=wrap;rounded=0;fillColor=none;strokeColor=none;" parent="1" vertex="1">
          <mxGeometry x="1005" y="180" width="240" height="47.5" as="geometry" />
        </mxCell>
        <mxCell id="XkHasaW6HYOZsEv8R7DG-44" value="&lt;font style=&quot;font-size: 24px;&quot;&gt;&lt;b style=&quot;&quot;&gt;okraj (edge)&lt;/b&gt;&lt;/font&gt;" style="text;html=1;align=center;verticalAlign=middle;whiteSpace=wrap;rounded=0;" parent="1" vertex="1">
          <mxGeometry x="380" width="160" height="40" as="geometry" />
        </mxCell>
        <mxCell id="XkHasaW6HYOZsEv8R7DG-45" value="&lt;font style=&quot;font-size: 24px;&quot;&gt;&lt;b style=&quot;&quot;&gt;datacentrum / cloud&lt;/b&gt;&lt;/font&gt;" style="text;html=1;align=center;verticalAlign=middle;whiteSpace=wrap;rounded=0;" parent="1" vertex="1">
          <mxGeometry x="850" width="240" height="40" as="geometry" />
        </mxCell>
        <mxCell id="PzeCFKbQgYkf4DiJO7ho-1" value="&lt;font style=&quot;font-size: 18px;&quot;&gt;&lt;b style=&quot;&quot;&gt;přijímací&lt;/b&gt;&lt;/font&gt;&lt;div&gt;&lt;font style=&quot;font-size: 18px;&quot;&gt;&lt;b style=&quot;&quot;&gt;periferie&lt;/b&gt;&lt;/font&gt;&lt;/div&gt;" style="rounded=0;whiteSpace=wrap;html=1;strokeWidth=2;fillColor=#99CCFF;" parent="1" vertex="1">
          <mxGeometry x="10" y="600" width="90" height="60" as="geometry" />
        </mxCell>
        <mxCell id="PzeCFKbQgYkf4DiJO7ho-2" value="&lt;b style=&quot;&quot;&gt;&lt;font style=&quot;font-size: 18px;&quot;&gt;Wi-Fi&lt;/font&gt;&lt;/b&gt;&lt;div&gt;&lt;b style=&quot;&quot;&gt;&lt;font style=&quot;font-size: 18px;&quot;&gt;modul&lt;/font&gt;&lt;/b&gt;&lt;/div&gt;" style="rounded=0;whiteSpace=wrap;html=1;strokeWidth=2;fillColor=#99CCFF;" parent="1" vertex="1">
          <mxGeometry x="210" y="600" width="80" height="60" as="geometry" />
        </mxCell>
        <mxCell id="PzeCFKbQgYkf4DiJO7ho-8" value="&lt;b style=&quot;&quot;&gt;&lt;font style=&quot;font-size: 18px;&quot;&gt;jádro&lt;/font&gt;&lt;/b&gt;" style="rounded=0;whiteSpace=wrap;html=1;strokeWidth=2;fillColor=#99CCFF;" parent="1" vertex="1">
          <mxGeometry x="113.75" y="600" width="80" height="60" as="geometry" />
        </mxCell>
        <mxCell id="PzeCFKbQgYkf4DiJO7ho-11" value="" style="endArrow=classic;html=1;rounded=0;entryX=0.221;entryY=-0.014;entryDx=0;entryDy=0;strokeColor=#FF0000;strokeWidth=2;entryPerimeter=0;" parent="1" target="PzeCFKbQgYkf4DiJO7ho-1" edge="1">
          <mxGeometry width="50" height="50" relative="1" as="geometry">
            <mxPoint x="-20" y="570" as="sourcePoint" />
            <mxPoint x="30" y="520" as="targetPoint" />
            <Array as="points">
              <mxPoint x="30" y="570" />
            </Array>
          </mxGeometry>
        </mxCell>
        <mxCell id="PzeCFKbQgYkf4DiJO7ho-13" value="" style="endArrow=classic;html=1;rounded=0;exitX=0.778;exitY=-0.008;exitDx=0;exitDy=0;entryX=0.25;entryY=0;entryDx=0;entryDy=0;strokeColor=#FF0000;strokeWidth=2;exitPerimeter=0;" parent="1" source="PzeCFKbQgYkf4DiJO7ho-1" target="PzeCFKbQgYkf4DiJO7ho-8" edge="1">
          <mxGeometry width="50" height="50" relative="1" as="geometry">
            <mxPoint x="150" y="530" as="sourcePoint" />
            <mxPoint x="200" y="480" as="targetPoint" />
            <Array as="points">
              <mxPoint x="80" y="570" />
              <mxPoint x="134" y="570" />
            </Array>
          </mxGeometry>
        </mxCell>
        <mxCell id="PzeCFKbQgYkf4DiJO7ho-14" value="" style="endArrow=classic;html=1;rounded=0;entryX=0.25;entryY=0;entryDx=0;entryDy=0;exitX=0.75;exitY=0;exitDx=0;exitDy=0;strokeColor=#FF0000;strokeWidth=2;" parent="1" source="PzeCFKbQgYkf4DiJO7ho-8" target="PzeCFKbQgYkf4DiJO7ho-2" edge="1">
          <mxGeometry width="50" height="50" relative="1" as="geometry">
            <mxPoint x="170" y="600" as="sourcePoint" />
            <mxPoint x="224" y="600" as="targetPoint" />
            <Array as="points">
              <mxPoint x="174" y="570" />
              <mxPoint x="230" y="570" />
              <mxPoint x="230" y="580" />
            </Array>
          </mxGeometry>
        </mxCell>
        <mxCell id="PzeCFKbQgYkf4DiJO7ho-23" value="&lt;font style=&quot;color: rgb(255, 0, 0); font-size: 18px;&quot;&gt;&lt;b style=&quot;&quot;&gt;data&lt;/b&gt;&lt;/font&gt;" style="text;html=1;align=center;verticalAlign=middle;whiteSpace=wrap;rounded=0;" parent="1" vertex="1">
          <mxGeometry x="-80" y="550" width="60" height="30" as="geometry" />
        </mxCell>
        <mxCell id="pJd6l3oP0TgscTY2UZdE-1" value="" style="ellipse;whiteSpace=wrap;html=1;aspect=fixed;fillColor=#000000;" parent="1" vertex="1">
          <mxGeometry x="149.75" y="417" width="8" height="8" as="geometry" />
        </mxCell>
        <mxCell id="pJd6l3oP0TgscTY2UZdE-2" value="" style="ellipse;whiteSpace=wrap;html=1;aspect=fixed;fillColor=#000000;" parent="1" vertex="1">
          <mxGeometry x="149.75" y="452" width="8" height="8" as="geometry" />
        </mxCell>
        <mxCell id="pJd6l3oP0TgscTY2UZdE-3" value="" style="ellipse;whiteSpace=wrap;html=1;aspect=fixed;fillColor=#000000;" parent="1" vertex="1">
          <mxGeometry x="149.75" y="486" width="8" height="8" as="geometry" />
        </mxCell>
        <mxCell id="IK0UVOFYf5uRvNnu709M-1" value="&lt;font style=&quot;font-size: 18px;&quot;&gt;&lt;b style=&quot;&quot;&gt;digitální záznamník 2&lt;/b&gt;&lt;/font&gt;&lt;div&gt;&lt;font style=&quot;font-size: 18px;&quot;&gt;&lt;b&gt;&lt;br&gt;&lt;/b&gt;&lt;/font&gt;&lt;/div&gt;&lt;div&gt;&lt;font style=&quot;font-size: 18px;&quot;&gt;&lt;b&gt;&lt;br&gt;&lt;/b&gt;&lt;/font&gt;&lt;/div&gt;&lt;div&gt;&lt;font style=&quot;font-size: 18px;&quot;&gt;&lt;b&gt;&lt;br&gt;&lt;/b&gt;&lt;/font&gt;&lt;/div&gt;&lt;div&gt;&lt;font style=&quot;font-size: 18px;&quot;&gt;&lt;b&gt;&lt;br&gt;&lt;/b&gt;&lt;/font&gt;&lt;/div&gt;&lt;div&gt;&lt;font style=&quot;font-size: 16px;&quot;&gt;&lt;b&gt;&lt;br&gt;&lt;/b&gt;&lt;/font&gt;&lt;/div&gt;" style="text;html=1;align=center;verticalAlign=middle;whiteSpace=wrap;rounded=0;fillColor=#7EA6E0;strokeColor=default;strokeWidth=3;" vertex="1" parent="1">
          <mxGeometry y="240" width="307.5" height="160" as="geometry" />
        </mxCell>
        <mxCell id="IK0UVOFYf5uRvNnu709M-2" value="&lt;font style=&quot;font-size: 18px;&quot;&gt;&lt;b style=&quot;&quot;&gt;přijímací&lt;/b&gt;&lt;/font&gt;&lt;div&gt;&lt;font style=&quot;font-size: 18px;&quot;&gt;&lt;b style=&quot;&quot;&gt;periferie&lt;/b&gt;&lt;/font&gt;&lt;/div&gt;" style="rounded=0;whiteSpace=wrap;html=1;strokeWidth=2;fillColor=#99CCFF;" vertex="1" parent="1">
          <mxGeometry x="10" y="330" width="90" height="60" as="geometry" />
        </mxCell>
        <mxCell id="IK0UVOFYf5uRvNnu709M-3" value="&lt;b style=&quot;&quot;&gt;&lt;font style=&quot;font-size: 18px;&quot;&gt;Wi-Fi&lt;/font&gt;&lt;/b&gt;&lt;div&gt;&lt;b style=&quot;&quot;&gt;&lt;font style=&quot;font-size: 18px;&quot;&gt;modul&lt;/font&gt;&lt;/b&gt;&lt;/div&gt;" style="rounded=0;whiteSpace=wrap;html=1;strokeWidth=2;fillColor=#99CCFF;" vertex="1" parent="1">
          <mxGeometry x="210" y="330" width="80" height="60" as="geometry" />
        </mxCell>
        <mxCell id="IK0UVOFYf5uRvNnu709M-4" value="&lt;b style=&quot;&quot;&gt;&lt;font style=&quot;font-size: 18px;&quot;&gt;jádro&lt;/font&gt;&lt;/b&gt;" style="rounded=0;whiteSpace=wrap;html=1;strokeWidth=2;fillColor=#99CCFF;" vertex="1" parent="1">
          <mxGeometry x="113.75" y="330" width="80" height="60" as="geometry" />
        </mxCell>
        <mxCell id="IK0UVOFYf5uRvNnu709M-5" value="" style="endArrow=classic;html=1;rounded=0;entryX=0.221;entryY=-0.014;entryDx=0;entryDy=0;strokeColor=#FF0000;strokeWidth=2;entryPerimeter=0;" edge="1" parent="1" target="IK0UVOFYf5uRvNnu709M-2">
          <mxGeometry width="50" height="50" relative="1" as="geometry">
            <mxPoint x="-20" y="300" as="sourcePoint" />
            <mxPoint x="30" y="250" as="targetPoint" />
            <Array as="points">
              <mxPoint x="30" y="300" />
            </Array>
          </mxGeometry>
        </mxCell>
        <mxCell id="IK0UVOFYf5uRvNnu709M-6" value="" style="endArrow=classic;html=1;rounded=0;exitX=0.778;exitY=-0.008;exitDx=0;exitDy=0;entryX=0.25;entryY=0;entryDx=0;entryDy=0;strokeColor=#FF0000;strokeWidth=2;exitPerimeter=0;" edge="1" parent="1" source="IK0UVOFYf5uRvNnu709M-2" target="IK0UVOFYf5uRvNnu709M-4">
          <mxGeometry width="50" height="50" relative="1" as="geometry">
            <mxPoint x="150" y="260" as="sourcePoint" />
            <mxPoint x="200" y="210" as="targetPoint" />
            <Array as="points">
              <mxPoint x="80" y="300" />
              <mxPoint x="134" y="300" />
            </Array>
          </mxGeometry>
        </mxCell>
        <mxCell id="IK0UVOFYf5uRvNnu709M-7" value="" style="endArrow=classic;html=1;rounded=0;entryX=0.25;entryY=0;entryDx=0;entryDy=0;exitX=0.75;exitY=0;exitDx=0;exitDy=0;strokeColor=#FF0000;strokeWidth=2;" edge="1" parent="1" source="IK0UVOFYf5uRvNnu709M-4" target="IK0UVOFYf5uRvNnu709M-3">
          <mxGeometry width="50" height="50" relative="1" as="geometry">
            <mxPoint x="170" y="330" as="sourcePoint" />
            <mxPoint x="224" y="330" as="targetPoint" />
            <Array as="points">
              <mxPoint x="174" y="300" />
              <mxPoint x="230" y="300" />
              <mxPoint x="230" y="310" />
            </Array>
          </mxGeometry>
        </mxCell>
        <mxCell id="IK0UVOFYf5uRvNnu709M-8" value="&lt;font style=&quot;color: rgb(255, 0, 0); font-size: 18px;&quot;&gt;&lt;b style=&quot;&quot;&gt;data&lt;/b&gt;&lt;/font&gt;" style="text;html=1;align=center;verticalAlign=middle;whiteSpace=wrap;rounded=0;" vertex="1" parent="1">
          <mxGeometry x="-80" y="280" width="60" height="30" as="geometry" />
        </mxCell>
        <mxCell id="IK0UVOFYf5uRvNnu709M-9" value="&lt;font style=&quot;font-size: 18px;&quot;&gt;&lt;b style=&quot;&quot;&gt;digitální záznamník 1&lt;/b&gt;&lt;/font&gt;&lt;div&gt;&lt;font style=&quot;font-size: 18px;&quot;&gt;&lt;b&gt;&lt;br&gt;&lt;/b&gt;&lt;/font&gt;&lt;/div&gt;&lt;div&gt;&lt;font style=&quot;font-size: 18px;&quot;&gt;&lt;b&gt;&lt;br&gt;&lt;/b&gt;&lt;/font&gt;&lt;/div&gt;&lt;div&gt;&lt;font style=&quot;font-size: 18px;&quot;&gt;&lt;b&gt;&lt;br&gt;&lt;/b&gt;&lt;/font&gt;&lt;/div&gt;&lt;div&gt;&lt;font style=&quot;font-size: 18px;&quot;&gt;&lt;b&gt;&lt;br&gt;&lt;/b&gt;&lt;/font&gt;&lt;/div&gt;&lt;div&gt;&lt;font style=&quot;font-size: 16px;&quot;&gt;&lt;b&gt;&lt;br&gt;&lt;/b&gt;&lt;/font&gt;&lt;/div&gt;" style="text;html=1;align=center;verticalAlign=middle;whiteSpace=wrap;rounded=0;fillColor=#7EA6E0;strokeColor=default;strokeWidth=3;" vertex="1" parent="1">
          <mxGeometry y="40" width="307.5" height="160" as="geometry" />
        </mxCell>
        <mxCell id="IK0UVOFYf5uRvNnu709M-10" value="&lt;font style=&quot;font-size: 18px;&quot;&gt;&lt;b style=&quot;&quot;&gt;přijímací&lt;/b&gt;&lt;/font&gt;&lt;div&gt;&lt;font style=&quot;font-size: 18px;&quot;&gt;&lt;b style=&quot;&quot;&gt;periferie&lt;/b&gt;&lt;/font&gt;&lt;/div&gt;" style="rounded=0;whiteSpace=wrap;html=1;strokeWidth=2;fillColor=#99CCFF;" vertex="1" parent="1">
          <mxGeometry x="10" y="130" width="90" height="60" as="geometry" />
        </mxCell>
        <mxCell id="IK0UVOFYf5uRvNnu709M-11" value="&lt;b style=&quot;&quot;&gt;&lt;font style=&quot;font-size: 18px;&quot;&gt;Wi-Fi&lt;/font&gt;&lt;/b&gt;&lt;div&gt;&lt;b style=&quot;&quot;&gt;&lt;font style=&quot;font-size: 18px;&quot;&gt;modul&lt;/font&gt;&lt;/b&gt;&lt;/div&gt;" style="rounded=0;whiteSpace=wrap;html=1;strokeWidth=2;fillColor=#99CCFF;" vertex="1" parent="1">
          <mxGeometry x="210" y="130" width="80" height="60" as="geometry" />
        </mxCell>
        <mxCell id="IK0UVOFYf5uRvNnu709M-12" value="&lt;b style=&quot;&quot;&gt;&lt;font style=&quot;font-size: 18px;&quot;&gt;jádro&lt;/font&gt;&lt;/b&gt;" style="rounded=0;whiteSpace=wrap;html=1;strokeWidth=2;fillColor=#99CCFF;" vertex="1" parent="1">
          <mxGeometry x="113.75" y="130" width="80" height="60" as="geometry" />
        </mxCell>
        <mxCell id="IK0UVOFYf5uRvNnu709M-13" value="" style="endArrow=classic;html=1;rounded=0;entryX=0.221;entryY=-0.014;entryDx=0;entryDy=0;strokeColor=#FF0000;strokeWidth=2;entryPerimeter=0;" edge="1" parent="1" target="IK0UVOFYf5uRvNnu709M-10">
          <mxGeometry width="50" height="50" relative="1" as="geometry">
            <mxPoint x="-20" y="100" as="sourcePoint" />
            <mxPoint x="30" y="50" as="targetPoint" />
            <Array as="points">
              <mxPoint x="30" y="100" />
            </Array>
          </mxGeometry>
        </mxCell>
        <mxCell id="IK0UVOFYf5uRvNnu709M-14" value="" style="endArrow=classic;html=1;rounded=0;exitX=0.778;exitY=-0.008;exitDx=0;exitDy=0;entryX=0.25;entryY=0;entryDx=0;entryDy=0;strokeColor=#FF0000;strokeWidth=2;exitPerimeter=0;" edge="1" parent="1" source="IK0UVOFYf5uRvNnu709M-10" target="IK0UVOFYf5uRvNnu709M-12">
          <mxGeometry width="50" height="50" relative="1" as="geometry">
            <mxPoint x="150" y="60" as="sourcePoint" />
            <mxPoint x="200" y="10" as="targetPoint" />
            <Array as="points">
              <mxPoint x="80" y="100" />
              <mxPoint x="134" y="100" />
            </Array>
          </mxGeometry>
        </mxCell>
        <mxCell id="IK0UVOFYf5uRvNnu709M-15" value="" style="endArrow=classic;html=1;rounded=0;entryX=0.25;entryY=0;entryDx=0;entryDy=0;exitX=0.75;exitY=0;exitDx=0;exitDy=0;strokeColor=#FF0000;strokeWidth=2;" edge="1" parent="1" source="IK0UVOFYf5uRvNnu709M-12" target="IK0UVOFYf5uRvNnu709M-11">
          <mxGeometry width="50" height="50" relative="1" as="geometry">
            <mxPoint x="170" y="130" as="sourcePoint" />
            <mxPoint x="224" y="130" as="targetPoint" />
            <Array as="points">
              <mxPoint x="174" y="100" />
              <mxPoint x="230" y="100" />
              <mxPoint x="230" y="110" />
            </Array>
          </mxGeometry>
        </mxCell>
        <mxCell id="IK0UVOFYf5uRvNnu709M-16" value="&lt;font style=&quot;color: rgb(255, 0, 0); font-size: 18px;&quot;&gt;&lt;b style=&quot;&quot;&gt;data&lt;/b&gt;&lt;/font&gt;" style="text;html=1;align=center;verticalAlign=middle;whiteSpace=wrap;rounded=0;" vertex="1" parent="1">
          <mxGeometry x="-80" y="80" width="60" height="30" as="geometry" />
        </mxCell>
        <mxCell id="IK0UVOFYf5uRvNnu709M-17" value="&lt;font style=&quot;font-size: 14px;&quot;&gt;&lt;b&gt;MQTT&lt;/b&gt;&lt;/font&gt;" style="text;html=1;align=center;verticalAlign=middle;whiteSpace=wrap;rounded=0;rotation=14;" vertex="1" parent="1">
          <mxGeometry x="346" y="290" width="60" height="30" as="geometry" />
        </mxCell>
      </root>
    </mxGraphModel>
  </diagram>
</mxfile>
